<svg width="24" height="24" viewBox="0 0 24 24" fill="none" xmlns="http://www.w3.org/2000/svg">
<mask id="mask0_946_2870" style="mask-type:alpha" maskUnits="userSpaceOnUse" x="0" y="0" width="24" height="24">
<rect width="24" height="24" fill="#D9D9D9"/>
</mask>
<g mask="url(#mask0_946_2870)">
<path d="M9.66667 15.2778C9.12222 15.2778 8.66204 15.0898 8.28611 14.7139C7.91019 14.338 7.72222 13.8778 7.72222 13.3333C7.72222 12.7889 7.91019 12.3287 8.28611 11.9528C8.66204 11.5769 9.12222 11.3889 9.66667 11.3889C10.2111 11.3889 10.6713 11.5769 11.0472 11.9528C11.4231 12.3287 11.6111 12.7889 11.6111 13.3333C11.6111 13.8778 11.4231 14.338 11.0472 14.7139C10.6713 15.0898 10.2111 15.2778 9.66667 15.2778ZM6.55556 19.5556C6.12778 19.5556 5.76157 19.4032 5.45694 19.0986C5.15231 18.794 5 18.4278 5 18V7.11111C5 6.68333 5.15231 6.31713 5.45694 6.0125C5.76157 5.70787 6.12778 5.55556 6.55556 5.55556H7.33333V4H8.88889V5.55556H15.1111V4H16.6667V5.55556H17.4444C17.8722 5.55556 18.2384 5.70787 18.5431 6.0125C18.8477 6.31713 19 6.68333 19 7.11111V18C19 18.4278 18.8477 18.794 18.5431 19.0986C18.2384 19.4032 17.8722 19.5556 17.4444 19.5556H6.55556ZM6.55556 18H17.4444V10.2222H6.55556V18ZM6.55556 8.66667H17.4444V7.11111H6.55556V8.66667Z" fill="#F59E0B"/>
</g>
</svg>
