<svg width="24" height="24" viewBox="0 0 24 24" fill="none" xmlns="http://www.w3.org/2000/svg">
<path fill-rule="evenodd" clip-rule="evenodd" d="M8.64552 6.25822L8.18182 6.54545L7.71812 6.25822C7.81756 6.09768 7.99297 6 8.18182 6C8.37066 6 8.54607 6.09768 8.64552 6.25822ZM8.18182 7.63366C8.28637 7.82335 8.40001 8.036 8.51343 8.25988C8.71305 8.65391 8.90767 9.0742 9.05117 9.46061C9.19992 9.86117 9.27273 10.1711 9.27273 10.3636C9.27273 10.9661 8.78431 11.4545 8.18182 11.4545C7.57933 11.4545 7.09091 10.9661 7.09091 10.3636C7.09091 10.1711 7.16372 9.86117 7.31247 9.46061C7.45597 9.0742 7.65058 8.65391 7.85021 8.25988C7.96363 8.036 8.07726 7.82335 8.18182 7.63366ZM8.18182 6.54545C7.71812 6.25822 7.71816 6.25816 7.71812 6.25822L7.71648 6.26087L7.71251 6.26732L7.69786 6.29123C7.68522 6.31194 7.66695 6.34204 7.64385 6.38051C7.59767 6.45744 7.53211 6.568 7.45361 6.70413C7.29689 6.97592 7.0873 7.35188 6.87706 7.76686C6.6676 8.18032 6.45312 8.64104 6.2898 9.08084C6.13174 9.50648 6 9.96792 6 10.3636C6 11.5686 6.97683 12.5455 8.18182 12.5455C9.3868 12.5455 10.3636 11.5686 10.3636 10.3636C10.3636 9.96792 10.2319 9.50648 10.0738 9.08084C9.91051 8.64104 9.69604 8.18032 9.48657 7.76686C9.27633 7.35188 9.06675 6.97592 8.91002 6.70413C8.83153 6.568 8.76597 6.45744 8.71978 6.38051C8.69669 6.34204 8.67842 6.31194 8.66577 6.29123L8.65113 6.26732L8.64716 6.26087L8.64552 6.25822C8.64548 6.25816 8.64552 6.25822 8.18182 6.54545ZM14.6455 6.25822L14.1818 6.54545L13.7181 6.25822C13.8176 6.09768 13.993 6 14.1818 6C14.3707 6 14.5461 6.09768 14.6455 6.25822ZM14.1818 7.61301C14.1691 7.63503 14.1561 7.65744 14.143 7.68023C13.8395 8.20657 13.4354 8.93155 13.032 9.7278C12.6279 10.5256 12.2287 11.3864 11.9318 12.1859C11.6296 12.9995 11.4545 13.6952 11.4545 14.1818C11.4545 15.688 12.6756 16.9091 14.1818 16.9091C15.688 16.9091 16.9091 15.688 16.9091 14.1818C16.9091 13.6952 16.734 12.9995 16.4318 12.1859C16.1349 11.3864 15.7358 10.5256 15.3316 9.7278C14.9282 8.93155 14.5242 8.20657 14.2207 7.68023C14.2075 7.65744 14.1946 7.63503 14.1818 7.61301ZM14.1818 6.54545C13.7181 6.25822 13.7182 6.25814 13.7181 6.25822L13.7153 6.26279L13.7078 6.27494L13.6795 6.32119C13.6549 6.36153 13.619 6.42058 13.5735 6.49632C13.4826 6.64778 13.3531 6.86613 13.1979 7.13528C12.8878 7.67311 12.4737 8.41605 12.0589 9.23478C11.6449 10.052 11.2259 10.9532 10.9091 11.8061C10.5976 12.6448 10.3636 13.492 10.3636 14.1818C10.3636 16.2905 12.0731 18 14.1818 18C16.2905 18 18 16.2905 18 14.1818C18 13.492 17.766 12.6448 17.4545 11.8061C17.1378 10.9532 16.7188 10.052 16.3048 9.23478C15.89 8.41605 15.4758 7.67311 15.1657 7.13528C15.0105 6.86613 14.881 6.64778 14.7901 6.49632C14.7446 6.42058 14.7088 6.36153 14.6842 6.32119L14.6558 6.27494L14.6483 6.26279L14.6455 6.25822C14.6455 6.25814 14.6455 6.25822 14.1818 6.54545Z" fill="#737373"/>
</svg>
