<svg width="24" height="24" viewBox="0 0 24 24" fill="none" xmlns="http://www.w3.org/2000/svg">
<mask id="mask0_1021_477" style="mask-type:alpha" maskUnits="userSpaceOnUse" x="0" y="0" width="24" height="24">
<rect width="24" height="24" fill="#D9D9D9"/>
</mask>
<g mask="url(#mask0_1021_477)">
<path d="M15.5 19V17.5H18.5V10H8V13H6.5V7C6.5 6.5875 6.64688 6.23438 6.94063 5.94062C7.23438 5.64687 7.5875 5.5 8 5.5H8.75V4H10.25V5.5H16.25V4H17.75V5.5H18.5C18.9125 5.5 19.2656 5.64687 19.5594 5.94062C19.8531 6.23438 20 6.5875 20 7V17.5C20 17.9125 19.8531 18.2656 19.5594 18.5594C19.2656 18.8531 18.9125 19 18.5 19H15.5ZM10.25 20.5L9.2 19.45L11.1313 17.5H5V16H11.1313L9.2 14.05L10.25 13L14 16.75L10.25 20.5ZM8 8.5H18.5V7H8V8.5Z" fill="#A3A3A3"/>
</g>
</svg>
