<svg width="52" height="52" viewBox="0 0 52 52" fill="none" xmlns="http://www.w3.org/2000/svg">
<circle cx="26" cy="26" r="25" fill="#D98F48" fill-opacity="0.3" stroke="#F59E0B" stroke-width="2"/>
<path d="M18.0664 27H17.6094L26 35.3906L32.8906 28.5H35.0117L26 37.5117L15.8633 27.3867C15.5898 27.1133 15.3477 26.8203 15.1367 26.5078C14.9258 26.1953 14.7422 25.8594 14.5859 25.5H17.4336L20.75 22.1953L26 27.4336L29.75 23.6953L31.5664 25.5H35.7266C35.9766 25.1016 36.168 24.6797 36.3008 24.2344C36.4336 23.7891 36.5 23.332 36.5 22.8633C36.5 22.1836 36.375 21.5508 36.125 20.9649C35.875 20.3789 35.5273 19.8711 35.082 19.4414C34.6367 19.0117 34.1211 18.6719 33.5352 18.4219C32.9492 18.1719 32.3125 18.0469 31.625 18.0469C30.9688 18.0469 30.3867 18.1484 29.8789 18.3516C29.3711 18.5547 28.9023 18.8281 28.4727 19.1719C28.043 19.5156 27.6328 19.8945 27.2422 20.3086C26.8516 20.7227 26.4375 21.1563 26 21.6094C25.5781 21.1875 25.168 20.7617 24.7695 20.332C24.3711 19.9024 23.957 19.5156 23.5273 19.1719C23.0977 18.8281 22.625 18.5469 22.1094 18.3281C21.5938 18.1094 21.0156 18 20.375 18C19.7031 18 19.0742 18.125 18.4883 18.375C17.9023 18.625 17.3867 18.9727 16.9414 19.418C16.4961 19.8633 16.1484 20.3789 15.8984 20.9649C15.6484 21.5508 15.5195 22.1836 15.5117 22.8633C15.5117 23.2305 15.5547 23.6094 15.6406 24H14.1055C14.0664 23.8125 14.043 23.625 14.0352 23.4375C14.0273 23.25 14.0195 23.0625 14.0117 22.875C14.0117 21.9922 14.1758 21.1641 14.5039 20.3906C14.832 19.6172 15.2852 18.9414 15.8633 18.3633C16.4414 17.7852 17.1172 17.332 17.8906 17.0039C18.6641 16.6758 19.4922 16.5078 20.375 16.5C21.0234 16.5 21.6016 16.5742 22.1094 16.7227C22.6172 16.8711 23.0859 17.0742 23.5156 17.332C23.9453 17.5899 24.3594 17.9063 24.7578 18.2813C25.1562 18.6563 25.5703 19.0586 26 19.4883C26.4297 19.0508 26.8398 18.6484 27.2305 18.2813C27.6211 17.9141 28.0352 17.6016 28.4727 17.3438C28.9102 17.0859 29.3828 16.8789 29.8906 16.7227C30.3984 16.5664 30.9766 16.4922 31.625 16.5C32.5 16.5 33.3242 16.6641 34.0977 16.9922C34.8711 17.3203 35.543 17.7734 36.1133 18.3516C36.6836 18.9297 37.1367 19.6016 37.4727 20.3672C37.8086 21.1328 37.9766 21.957 37.9766 22.8399C37.9766 23.5977 37.8438 24.332 37.5781 25.043C37.3125 25.7539 36.9336 26.4063 36.4414 27H30.9336L29.75 25.8047L26 29.5664L20.75 24.3047L18.0664 27Z" fill="black"/>
</svg>
