<svg width="52" height="52" viewBox="0 0 52 52" fill="none" xmlns="http://www.w3.org/2000/svg">
<circle cx="26" cy="26" r="25" fill="#D98F48" fill-opacity="0.3" stroke="#F59E0B" stroke-width="2"/>
<path d="M19.9972 32H31.9972L30.5722 22H21.4222L19.9972 32ZM25.9972 20C26.2806 20 26.5182 19.904 26.7102 19.712C26.9022 19.52 26.9979 19.2827 26.9972 19C26.9966 18.7173 26.9006 18.48 26.7092 18.288C26.5179 18.096 26.2806 18 25.9972 18C25.7139 18 25.4766 18.096 25.2852 18.288C25.0939 18.48 24.9979 18.7173 24.9972 19C24.9966 19.2827 25.0926 19.5203 25.2852 19.713C25.4779 19.9057 25.7152 20.0013 25.9972 20ZM28.8222 20H30.5722C31.0722 20 31.5056 20.1667 31.8722 20.5C32.2389 20.8333 32.4639 21.2417 32.5472 21.725L33.9722 31.725C34.0556 32.325 33.9016 32.8543 33.5102 33.313C33.1189 33.7717 32.6146 34.0007 31.9972 34H19.9972C19.3806 34 18.8762 33.771 18.4842 33.313C18.0922 32.855 17.9382 32.3257 18.0222 31.725L19.4472 21.725C19.5306 21.2417 19.7556 20.8333 20.1222 20.5C20.4889 20.1667 20.9222 20 21.4222 20H23.1722C23.1222 19.8333 23.0806 19.671 23.0472 19.513C23.0139 19.355 22.9972 19.184 22.9972 19C22.9972 18.1667 23.2889 17.4583 23.8722 16.875C24.4556 16.2917 25.1639 16 25.9972 16C26.8306 16 27.5389 16.2917 28.1222 16.875C28.7056 17.4583 28.9972 18.1667 28.9972 19C28.9972 19.1833 28.9806 19.3543 28.9472 19.513C28.9139 19.6717 28.8722 19.834 28.8222 20Z" fill="black"/>
</svg>
